<?xml version="1.0" encoding="UTF-8" standalone="no"?>
<!DOCTYPE svg PUBLIC "-//W3C//DTD SVG 1.1//EN" "http://www.w3.org/Graphics/SVG/1.1/DTD/svg11.dtd">
<svg width="100%" height="100%" viewBox="0 0 520 421" version="1.1" xmlns="http://www.w3.org/2000/svg" xmlns:xlink="http://www.w3.org/1999/xlink" xml:space="preserve" xmlns:serif="http://www.serif.com/" style="fill-rule:evenodd;clip-rule:evenodd;stroke-linejoin:round;stroke-miterlimit:2;">
    <g transform="matrix(1,0,0,1,284.467,420.877)">
        <path d="M0,-420.877C-160.995,-420.877 -241.984,-386.703 -241.984,-296.243C-241.984,-231.121 -209.294,-198.45 -144.191,-183.274L-284.467,0L-97.056,-175.695C-68.811,-172.749 -36.465,-171.608 0,-171.608C160.995,-171.608 235.231,-203.772 235.231,-296.243C235.231,-394.744 160.995,-420.877 0,-420.877" style="fill:rgb(255,204,0);fill-rule:nonzero;"/>
    </g>
    <g transform="matrix(1,0,0,1,178.878,140.099)">
        <path d="M0,-88.478L-15.356,-44.02L-31.236,-93.408L-44.39,-92.789L-20.274,-37.532L-19.145,4.909L-8.473,4.93L-9.85,-36.515L9.819,-89.038L0,-88.478Z" style="fill:rgb(0,113,116);fill-rule:nonzero;"/>
    </g>
    <g transform="matrix(1,0,0,1,405.57,67.3878)">
        <path d="M0,67.064C-9.729,68.73 -13.819,49.089 -13.876,34.171C-13.933,19.198 -10.897,4.22 -1.455,2.222C6.665,0.504 12.561,15.72 12.799,30.617C13.109,50.045 8.347,65.635 0,67.064M18.183,34.121C17.719,8.395 12.034,-13.66 -3.921,-12.25C-18.296,-10.979 -24.015,12.348 -24.015,39.202C-24.015,66.056 -14.076,80.724 -1.708,79.909C10.386,79.112 18.667,60.956 18.183,34.121" style="fill:rgb(0,113,116);fill-rule:nonzero;"/>
    </g>
    <g transform="matrix(1,0,0,1,321.971,42.2898)">
        <path d="M0,110.044L4.69,26.725L20.442,92.284L31.962,92.092L42.56,28.642L44.825,112.4L55.971,111.633L50.061,4.591L36.563,4.226L24.989,65.324L10.533,-2.33L-2.642,-2.356L-8.141,110.115L0,110.044Z" style="fill:rgb(0,113,116);fill-rule:nonzero;"/>
    </g>
    <g transform="matrix(1,0,0,1,438.005,57.9741)">
        <path d="M0,71.753L0,39.565L28.129,38.245L29.47,25.268L-0.068,25.504L-0.192,0.216L28.024,-0.051L28.024,-13.414L-8.297,-9.926L-8.394,28.601L-8.394,85.167L30.49,82.368L30.168,72.738L0,71.753Z" style="fill:rgb(0,113,116);fill-rule:nonzero;"/>
    </g>
    <g transform="matrix(1,0,0,1,245.085,74.1801)">
        <path d="M0,35.412L8.086,-21.522L8.875,-21.703L19.413,35.322L0,35.412ZM30.378,70.527L39.479,71.662L12.119,-35.986L1.527,-36.285L-13.356,71.697L-3.31,71.697L-0.392,51.693L24.59,50.664L30.378,70.527Z" style="fill:rgb(0,113,116);fill-rule:nonzero;"/>
    </g>
    <g transform="matrix(1,0,0,1,227.388,56.2603)">
        <path d="M0,97.016L-0.451,-0.403L-11.696,-0.223L-10.11,72.639C-10.094,72.916 -10.427,72.17 -10.52,71.906L-31.735,7.34L-41.096,6.44L-39.781,97.09L-33.158,96.27L-32.781,36.36C-32.768,35.879 -32.907,34.89 -32.744,35.349L-12.128,97.016C-11.983,97.419 0,97.016 0,97.016" style="fill:rgb(0,113,116);fill-rule:nonzero;"/>
    </g>
    <g transform="matrix(1,0,0,1,124.421,68.2038)">
        <path d="M0,67.255C-4.65,74.812 -13.117,79.372 -23.667,79.372C-23.667,79.372 -24.032,-1.336 -23.623,-3.598C-15.682,-3.749 -10.042,-0.122 -6.246,3.366C15.835,23.657 8.134,54.037 0,67.255M3.504,-9.567C-4.574,-18.847 -14.546,-19.863 -33.305,-20.509C-33.305,-20.509 -32.545,74.86 -32.416,86.038C-20.058,86.644 -1.03,87.764 9.721,72.062C28.954,43.975 23.817,13.77 3.504,-9.567" style="fill:rgb(0,113,116);fill-rule:nonzero;"/>
    </g>
    <g transform="matrix(1,0,0,1,405.223,159.827)">
        <path d="M0,43.943L-1.333,12.728L-8.598,38.56L-10.231,38.12L-17.02,13.794L-17.155,43.887L-20.404,43.593L-18.925,0.67L-15.379,-0.027L-8.675,27.802L-2.947,1.103L1.839,1.91L3.813,43.97L0,43.943Z" style="fill:rgb(232,24,128);fill-rule:nonzero;"/>
    </g>
    <g transform="matrix(1,0,0,1,200.091,189.964)">
        <path d="M0,-1.358L-0.261,-16.681L4.434,-16.811C12.976,-16.159 11.976,-5.589 8.216,-2.727C5.216,-0.445 0.803,-1.336 0,-1.358M7.019,2.35C7.406,2.305 9.1,1.133 9.129,1.12C10.714,0.4 14.736,-1.945 14.708,-10.938C14.666,-24.331 1.739,-23.366 -3.634,-22.502C-3.654,-22.498 -3.948,17.613 -3.948,17.613L1.321,17.613L0.841,2.644L2.753,2.644L15.403,22.795L18.583,22.973L7.019,2.35Z" style="fill:rgb(232,24,128);fill-rule:nonzero;"/>
    </g>
    <g transform="matrix(1,0,0,1,120.524,161.849)">
        <path d="M0,41.88L-15.677,41.303L-15.442,0L-10.28,1.567L-10.502,35.396L-2.055,36.54L0,41.88Z" style="fill:rgb(232,24,128);fill-rule:nonzero;"/>
    </g>
    <g transform="matrix(1,0,0,1,371.875,168.775)">
        <path d="M0,32.028C-7.094,32.826 -10.076,23.415 -10.117,16.267C-10.159,9.093 -8.596,2.434 -1.712,1.477C4.209,0.654 7.892,7.434 8.261,14.565C8.565,20.454 6.086,31.343 0,32.028M11.893,16.267C11.589,5.174 7.857,-4.337 -2.611,-3.729C-12.044,-3.181 -15.797,6.878 -15.797,18.459C-15.797,30.039 -9.275,36.365 -1.159,36.013C6.776,35.669 12.21,27.84 11.893,16.267" style="fill:rgb(232,24,128);fill-rule:nonzero;"/>
    </g>
    <g transform="matrix(1,0,0,1,416.268,170.027)">
        <path d="M0,31.148L-0.057,18.934L12.847,17.641L12.309,12.631L-0.085,12.735L-0.137,1.586L12.847,0.961L12.612,-3.051L-5.279,-4.318L-3.378,35.362L12.736,35.466L12.601,31.565L0,31.148Z" style="fill:rgb(232,24,128);fill-rule:nonzero;"/>
    </g>
    <g transform="matrix(1,0,0,1,473.376,198.958)">
        <path d="M0,-38.335L-6.397,-21.695L-13.362,-41.2L-19.213,-40.944L-8.486,-18.157L-7.729,2.856L-3.872,2.865L-3.85,-17.326L4.367,-38.566L0,-38.335Z" style="fill:rgb(232,24,128);fill-rule:nonzero;"/>
    </g>
    <g transform="matrix(1,0,0,1,178.277,180.738)">
        <path d="M0,5.46C-3.367,1.513 -9.066,2.5 -13.931,0.694C-18.459,-0.987 -19.64,-6.233 -17.495,-9.222C-14.853,-12.907 -9.554,-12.088 -8.584,-11.568C-6.449,-10.425 -7.831,-7.312 -7.789,-3.003L-1.746,-3.354C-1.536,-7.361 -2.008,-11.571 -3.717,-13.542C-6.038,-16.218 -10.173,-16.769 -13.392,-16.053C-18.332,-14.954 -23.013,-10.357 -20.995,-2.515C-19.576,1.776 -18.92,2.989 -15.851,4.6C-13.28,5.949 -7.485,6.28 -5.33,7.592C-2.368,9.65 -2.87,14.832 -4.282,17.584C-4.927,18.84 -13.268,18.597 -14.014,17.849C-15.256,16.604 -14.566,14.191 -14.121,10.568L-19.844,10.598C-20.19,14.271 -19.443,17.049 -17.678,18.945C-15.823,20.938 -12.845,21.958 -8.832,22.019C-5.373,22.229 -2.627,20.608 -0.785,18.253C2.284,14.329 2.84,8.369 0,5.46" style="fill:rgb(232,24,128);fill-rule:nonzero;"/>
    </g>
    <g transform="matrix(1,0,0,1,340.876,164.144)">
        <path d="M0,35.018C-5.375,34.793 -6.937,28.179 -7.587,20.281C-8.237,12.383 -7.266,1.83 -1.958,0.877C4.739,-0.325 6.729,2.716 7.276,12.903C7.28,12.981 13.884,12.932 13.884,12.932C13.862,12.676 13.241,9.222 13.228,8.969C12.685,-1.643 3.4,-5.19 -4.168,-1.669C-12.121,2.031 -13.292,11.1 -12.399,21.958C-11.505,32.816 -5.747,40.208 2.202,38.948C11.07,37.542 14.119,31.046 13.461,23.228L7.167,23.201C6.691,29.621 5.874,35.264 0,35.018" style="fill:rgb(232,24,128);fill-rule:nonzero;"/>
    </g>
    <g transform="matrix(1,0,0,1,143.738,163.137)">
        <path d="M0,43.405L-21.88,43.91L-22.507,-0.505L-18.113,-0.217L-15.681,38.861L-2.119,39.727L0,43.405Z" style="fill:rgb(232,24,128);fill-rule:nonzero;"/>
    </g>
    <g transform="matrix(1,0.000368324,0.000368324,-1,92.1742,169.257)">
        <path d="M-0.006,-0.001L5.424,-0.001L5.153,-29.113L1.242,-29.877L-0.006,-0.001Z" style="fill:rgb(232,24,128);fill-rule:nonzero;"/>
    </g>
    <g transform="matrix(1,0,0,1,198.651,202.175)">
        <path d="M0,-44.666L-24.178,-44.506L-23.943,-39.798L-14.567,-38.757L-14.665,0L-10.514,0L-9.112,-38.839L0.775,-39.327L0,-44.666Z" style="fill:rgb(232,24,128);fill-rule:nonzero;"/>
    </g>
    <g transform="matrix(-0.00296766,-0.999996,-0.999996,0.00296766,269.113,188.935)">
        <path d="M-11.752,17.426L16.89,17.426L17.374,11.632L-11.695,12.843L-11.752,17.426Z" style="fill:rgb(232,24,128);fill-rule:nonzero;"/>
    </g>
    <g transform="matrix(1,0,0,1,144.728,163.479)">
        <path d="M0,36.338C6.354,36.362 7.259,31.222 8.005,27.092C8.541,24.118 8.151,2.991 8.151,2.991L6.043,3.536C6.043,3.536 6.211,20.176 5.457,27.917C4.953,33.105 -2.476,34.052 -3.364,28.535C-3.618,26.955 -3.741,-0.047 -3.741,-0.047L-9.732,0.409L-9.6,27.177C-9.259,32.541 -7.426,36.385 0,36.338" style="fill:rgb(232,24,128);fill-rule:nonzero;"/>
    </g>
    <g transform="matrix(1,0,0,1,273.317,165.068)">
        <path d="M0,32.094C-5.513,32.894 -7.831,23.464 -7.863,16.301C-7.895,9.112 -6.175,1.921 -0.824,0.962C3.777,0.137 7.118,7.442 7.252,14.595C7.428,23.923 4.73,31.408 0,32.094M9.243,16.301C9.006,5.185 6.107,-4.345 -2.03,-3.736C-9.361,-3.187 -12.277,6.893 -12.277,18.497C-12.277,30.101 -7.209,36.439 -0.901,36.087C5.266,35.743 9.49,27.897 9.243,16.301" style="fill:rgb(232,24,128);fill-rule:nonzero;"/>
    </g>
    <g transform="matrix(1,0,0,1,227.37,198.479)">
        <path d="M0,-37.681L32.822,-37.354L32.869,-32.248L15.116,-32.38L15.58,-0.056L11.248,0L11.39,-32.408L0,-32.493L0,-37.681Z" style="fill:rgb(232,24,128);fill-rule:nonzero;"/>
    </g>
    <g transform="matrix(1,0,0,1,306.413,201.595)">
        <path d="M0,-41.056L-0.869,-14.916L-16.667,-40.445C-16.806,-40.445 -19.647,-40.165 -19.785,-40.165L-19.03,-0.037L-13.231,0L-13.917,-28.206L1.014,-2.361C1.314,-2.365 2.597,-6.123 2.897,-6.128L2.8,-41.032L0,-41.056Z" style="fill:rgb(232,24,128);fill-rule:nonzero;"/>
    </g>
    <g transform="matrix(1,0,0,1,219.928,181.812)">
        <path d="M0,8.342L4.172,-8.733L8.146,8.317L0,8.342ZM10.995,20.538L15.568,20.214L6.772,-12.096L2.02,-12.196L-5.052,19.252L-2.489,19.373L-1.103,13.231L9.246,13.037L10.995,20.538Z" style="fill:rgb(232,24,128);fill-rule:nonzero;"/>
    </g>
    <g transform="matrix(-0.993609,0.112881,0.112881,0.993609,325.4,153.265)">
        <path d="M22.831,60.72L26.729,60.72L-4.025,0.917L-7.335,1.298L22.831,60.72Z" style="fill:rgb(232,24,128);fill-rule:nonzero;"/>
    </g>
    <g transform="matrix(1,0,0,1,451.016,171.777)">
        <path d="M0,28.33C-2.027,31.736 -5.17,31.582 -9.768,31.582C-9.768,31.582 -10.28,-0.281 -10.102,-1.301C-6.64,-1.369 -3.658,0.289 -2.004,1.861C5.753,9.23 2.489,24.149 0,28.33M1.216,-3.99C-2.004,-7.891 -7.634,-8.317 -15.11,-8.589C-15.11,-8.589 -14.807,31.496 -14.756,36.194C-9.831,36.448 -0.592,36.919 3.693,30.319C10.134,20.399 7.755,3.933 1.216,-3.99" style="fill:rgb(232,24,128);fill-rule:nonzero;"/>
    </g>
    <g transform="matrix(1,0,0,1,94.6299,158.419)">
        <path d="M0,9.001C5.063,8.932 5.518,-0.039 -0.189,-0.017C-2.995,-0.006 -4.248,2.401 -4.213,4.651C-4.179,6.9 -2.857,9.04 0,9.001" style="fill:rgb(232,24,128);fill-rule:nonzero;"/>
    </g>
    <g transform="matrix(1,0,0,1,178.878,140.099)">
        <path d="M0,-88.478L-15.356,-44.02L-31.236,-93.408L-44.39,-92.789L-20.274,-37.532L-19.145,4.909L-8.473,4.93L-9.85,-36.515L9.819,-89.038L0,-88.478Z" style="fill:rgb(0,113,116);fill-rule:nonzero;"/>
    </g>
    <g transform="matrix(1,0,0,1,405.57,67.3878)">
        <path d="M0,67.064C-9.729,68.73 -13.819,49.089 -13.876,34.171C-13.933,19.198 -10.897,4.22 -1.455,2.222C6.665,0.504 12.561,15.72 12.799,30.617C13.109,50.045 8.347,65.635 0,67.064M18.183,34.121C17.719,8.395 12.034,-13.66 -3.921,-12.25C-18.296,-10.979 -24.015,12.348 -24.015,39.202C-24.015,66.056 -14.076,80.724 -1.708,79.909C10.386,79.112 18.667,60.956 18.183,34.121" style="fill:rgb(0,113,116);fill-rule:nonzero;"/>
    </g>
    <g transform="matrix(1,0,0,1,321.971,42.2898)">
        <path d="M0,110.044L4.69,26.725L20.442,92.284L31.962,92.092L42.56,28.642L44.825,112.4L55.971,111.633L50.061,4.591L36.563,4.226L24.989,65.324L10.533,-2.33L-2.642,-2.356L-8.141,110.115L0,110.044Z" style="fill:rgb(0,113,116);fill-rule:nonzero;"/>
    </g>
    <g transform="matrix(1,0,0,1,438.005,57.9741)">
        <path d="M0,71.753L0,39.565L28.129,38.245L29.47,25.268L-0.068,25.504L-0.192,0.216L28.024,-0.051L28.024,-13.414L-8.297,-9.926L-8.394,28.601L-8.394,85.167L30.49,82.368L30.168,72.738L0,71.753Z" style="fill:rgb(0,113,116);fill-rule:nonzero;"/>
    </g>
    <g transform="matrix(1,0,0,1,245.085,74.1801)">
        <path d="M0,35.412L8.086,-21.522L8.875,-21.703L19.413,35.322L0,35.412ZM30.378,70.527L39.479,71.662L12.119,-35.986L1.527,-36.285L-13.356,71.697L-3.31,71.697L-0.392,51.693L24.59,50.664L30.378,70.527Z" style="fill:rgb(0,113,116);fill-rule:nonzero;"/>
    </g>
    <g transform="matrix(1,0,0,1,227.388,56.2603)">
        <path d="M0,97.016L-0.451,-0.403L-11.696,-0.223L-10.11,72.639C-10.094,72.916 -10.427,72.17 -10.52,71.906L-31.735,7.34L-41.096,6.44L-39.781,97.09L-33.158,96.27L-32.781,36.36C-32.768,35.879 -32.907,34.89 -32.744,35.349L-12.128,97.016C-11.983,97.419 0,97.016 0,97.016" style="fill:rgb(0,113,116);fill-rule:nonzero;"/>
    </g>
    <g transform="matrix(1,0,0,1,124.421,68.2038)">
        <path d="M0,67.255C-4.65,74.812 -13.117,79.372 -23.667,79.372C-23.667,79.372 -24.032,-1.336 -23.623,-3.598C-15.682,-3.749 -10.042,-0.122 -6.246,3.366C15.835,23.657 8.134,54.037 0,67.255M3.504,-9.567C-4.574,-18.847 -14.546,-19.863 -33.305,-20.509C-33.305,-20.509 -32.545,74.86 -32.416,86.038C-20.058,86.644 -1.03,87.764 9.721,72.062C28.954,43.975 23.817,13.77 3.504,-9.567" style="fill:rgb(0,113,116);fill-rule:nonzero;"/>
    </g>
    <g transform="matrix(1,0,0,1,405.223,159.827)">
        <path d="M0,43.943L-1.333,12.728L-8.598,38.56L-10.231,38.12L-17.02,13.794L-17.155,43.887L-20.404,43.593L-18.925,0.67L-15.379,-0.027L-8.675,27.802L-2.947,1.103L1.839,1.91L3.813,43.97L0,43.943Z" style="fill:rgb(232,24,128);fill-rule:nonzero;"/>
    </g>
    <g transform="matrix(1,0,0,1,200.091,189.964)">
        <path d="M0,-1.358L-0.261,-16.681L4.434,-16.811C12.976,-16.159 11.976,-5.589 8.216,-2.727C5.216,-0.445 0.803,-1.336 0,-1.358M7.019,2.35C7.406,2.305 9.1,1.133 9.129,1.12C10.714,0.4 14.736,-1.945 14.708,-10.938C14.666,-24.331 1.739,-23.366 -3.634,-22.502C-3.654,-22.498 -3.948,17.613 -3.948,17.613L1.321,17.613L0.841,2.644L2.753,2.644L15.403,22.795L18.583,22.973L7.019,2.35Z" style="fill:rgb(232,24,128);fill-rule:nonzero;"/>
    </g>
    <g transform="matrix(1,0,0,1,120.524,161.849)">
        <path d="M0,41.88L-15.677,41.303L-15.442,0L-10.28,1.567L-10.502,35.396L-2.055,36.54L0,41.88Z" style="fill:rgb(232,24,128);fill-rule:nonzero;"/>
    </g>
    <g transform="matrix(1,0,0,1,371.875,168.775)">
        <path d="M0,32.028C-7.094,32.826 -10.076,23.415 -10.117,16.267C-10.159,9.093 -8.596,2.434 -1.712,1.477C4.209,0.654 7.892,7.434 8.261,14.565C8.565,20.454 6.086,31.343 0,32.028M11.893,16.267C11.589,5.174 7.857,-4.337 -2.611,-3.729C-12.044,-3.181 -15.797,6.878 -15.797,18.459C-15.797,30.039 -9.275,36.365 -1.159,36.013C6.776,35.669 12.21,27.84 11.893,16.267" style="fill:rgb(232,24,128);fill-rule:nonzero;"/>
    </g>
    <g transform="matrix(1,0,0,1,416.268,170.027)">
        <path d="M0,31.148L-0.057,18.934L12.847,17.641L12.309,12.631L-0.085,12.735L-0.137,1.586L12.847,0.961L12.612,-3.051L-5.279,-4.318L-3.378,35.362L12.736,35.466L12.601,31.565L0,31.148Z" style="fill:rgb(232,24,128);fill-rule:nonzero;"/>
    </g>
    <g transform="matrix(1,0,0,1,473.376,198.958)">
        <path d="M0,-38.335L-6.397,-21.695L-13.362,-41.2L-19.213,-40.944L-8.486,-18.157L-7.729,2.856L-3.872,2.865L-3.85,-17.326L4.367,-38.566L0,-38.335Z" style="fill:rgb(232,24,128);fill-rule:nonzero;"/>
    </g>
    <g transform="matrix(1,0,0,1,178.277,180.738)">
        <path d="M0,5.46C-3.367,1.513 -9.066,2.5 -13.931,0.694C-18.459,-0.987 -19.64,-6.233 -17.495,-9.222C-14.853,-12.907 -9.554,-12.088 -8.584,-11.568C-6.449,-10.425 -7.831,-7.312 -7.789,-3.003L-1.746,-3.354C-1.536,-7.361 -2.008,-11.571 -3.717,-13.542C-6.038,-16.218 -10.173,-16.769 -13.392,-16.053C-18.332,-14.954 -23.013,-10.357 -20.995,-2.515C-19.576,1.776 -18.92,2.989 -15.851,4.6C-13.28,5.949 -7.485,6.28 -5.33,7.592C-2.368,9.65 -2.87,14.832 -4.282,17.584C-4.927,18.84 -13.268,18.597 -14.014,17.849C-15.256,16.604 -14.566,14.191 -14.121,10.568L-19.844,10.598C-20.19,14.271 -19.443,17.049 -17.678,18.945C-15.823,20.938 -12.845,21.958 -8.832,22.019C-5.373,22.229 -2.627,20.608 -0.785,18.253C2.284,14.329 2.84,8.369 0,5.46" style="fill:rgb(232,24,128);fill-rule:nonzero;"/>
    </g>
    <g transform="matrix(1,0,0,1,340.876,164.144)">
        <path d="M0,35.018C-5.375,34.793 -6.937,28.179 -7.587,20.281C-8.237,12.383 -7.266,1.83 -1.958,0.877C4.739,-0.325 6.729,2.716 7.276,12.903C7.28,12.981 13.884,12.932 13.884,12.932C13.862,12.676 13.241,9.222 13.228,8.969C12.685,-1.643 3.4,-5.19 -4.168,-1.669C-12.121,2.031 -13.292,11.1 -12.399,21.958C-11.505,32.816 -5.747,40.208 2.202,38.948C11.07,37.542 14.119,31.046 13.461,23.228L7.167,23.201C6.691,29.621 5.874,35.264 0,35.018" style="fill:rgb(232,24,128);fill-rule:nonzero;"/>
    </g>
    <g transform="matrix(1,0,0,1,143.738,163.137)">
        <path d="M0,43.405L-21.88,43.91L-22.507,-0.505L-18.113,-0.217L-15.681,38.861L-2.119,39.727L0,43.405Z" style="fill:rgb(232,24,128);fill-rule:nonzero;"/>
    </g>
    <g transform="matrix(1,0.000368324,0.000368324,-1,92.1742,169.257)">
        <path d="M-0.006,-0.001L5.424,-0.001L5.153,-29.113L1.242,-29.877L-0.006,-0.001Z" style="fill:rgb(232,24,128);fill-rule:nonzero;"/>
    </g>
    <g transform="matrix(1,0,0,1,198.651,202.175)">
        <path d="M0,-44.666L-24.178,-44.506L-23.943,-39.798L-14.567,-38.757L-14.665,0L-10.514,0L-9.112,-38.839L0.775,-39.327L0,-44.666Z" style="fill:rgb(232,24,128);fill-rule:nonzero;"/>
    </g>
    <g transform="matrix(-0.00296766,-0.999996,-0.999996,0.00296766,269.113,188.935)">
        <path d="M-11.752,17.426L16.89,17.426L17.374,11.632L-11.695,12.843L-11.752,17.426Z" style="fill:rgb(232,24,128);fill-rule:nonzero;"/>
    </g>
    <g transform="matrix(1,0,0,1,144.728,163.479)">
        <path d="M0,36.338C6.354,36.362 7.259,31.222 8.005,27.092C8.541,24.118 8.151,2.991 8.151,2.991L6.043,3.536C6.043,3.536 6.211,20.176 5.457,27.917C4.953,33.105 -2.476,34.052 -3.364,28.535C-3.618,26.955 -3.741,-0.047 -3.741,-0.047L-9.732,0.409L-9.6,27.177C-9.259,32.541 -7.426,36.385 0,36.338" style="fill:rgb(232,24,128);fill-rule:nonzero;"/>
    </g>
    <g transform="matrix(1,0,0,1,273.317,165.068)">
        <path d="M0,32.094C-5.513,32.894 -7.831,23.464 -7.863,16.301C-7.895,9.112 -6.175,1.921 -0.824,0.962C3.777,0.137 7.118,7.442 7.252,14.595C7.428,23.923 4.73,31.408 0,32.094M9.243,16.301C9.006,5.185 6.107,-4.345 -2.03,-3.736C-9.361,-3.187 -12.277,6.893 -12.277,18.497C-12.277,30.101 -7.209,36.439 -0.901,36.087C5.266,35.743 9.49,27.897 9.243,16.301" style="fill:rgb(232,24,128);fill-rule:nonzero;"/>
    </g>
    <g transform="matrix(1,0,0,1,227.37,198.479)">
        <path d="M0,-37.681L32.822,-37.354L32.869,-32.248L15.116,-32.38L15.58,-0.056L11.248,0L11.39,-32.408L0,-32.493L0,-37.681Z" style="fill:rgb(232,24,128);fill-rule:nonzero;"/>
    </g>
    <g transform="matrix(1,0,0,1,306.413,201.595)">
        <path d="M0,-41.056L-0.869,-14.916L-16.667,-40.445C-16.806,-40.445 -19.647,-40.165 -19.785,-40.165L-19.03,-0.037L-13.231,0L-13.917,-28.206L1.014,-2.361C1.314,-2.365 2.597,-6.123 2.897,-6.128L2.8,-41.032L0,-41.056Z" style="fill:rgb(232,24,128);fill-rule:nonzero;"/>
    </g>
    <g transform="matrix(1,0,0,1,219.928,181.812)">
        <path d="M0,8.342L4.172,-8.733L8.146,8.317L0,8.342ZM10.995,20.538L15.568,20.214L6.772,-12.096L2.02,-12.196L-5.052,19.252L-2.489,19.373L-1.103,13.231L9.246,13.037L10.995,20.538Z" style="fill:rgb(232,24,128);fill-rule:nonzero;"/>
    </g>
    <g transform="matrix(-0.993609,0.112881,0.112881,0.993609,325.4,153.265)">
        <path d="M22.831,60.72L26.729,60.72L-4.025,0.917L-7.335,1.298L22.831,60.72Z" style="fill:rgb(232,24,128);fill-rule:nonzero;"/>
    </g>
    <g transform="matrix(1,0,0,1,451.016,171.777)">
        <path d="M0,28.33C-2.027,31.736 -5.17,31.582 -9.768,31.582C-9.768,31.582 -10.28,-0.281 -10.102,-1.301C-6.64,-1.369 -3.658,0.289 -2.004,1.861C5.753,9.23 2.489,24.149 0,28.33M1.216,-3.99C-2.004,-7.891 -7.634,-8.317 -15.11,-8.589C-15.11,-8.589 -14.807,31.496 -14.756,36.194C-9.831,36.448 -0.592,36.919 3.693,30.319C10.134,20.399 7.755,3.933 1.216,-3.99" style="fill:rgb(232,24,128);fill-rule:nonzero;"/>
    </g>
    <g transform="matrix(1,0,0,1,94.6299,158.419)">
        <path d="M0,9.001C5.063,8.932 5.518,-0.039 -0.189,-0.017C-2.995,-0.006 -4.248,2.401 -4.213,4.651C-4.179,6.9 -2.857,9.04 0,9.001" style="fill:rgb(232,24,128);fill-rule:nonzero;"/>
    </g>
</svg>
