<svg xmlns="http://www.w3.org/2000/svg" xmlns:xlink="http://www.w3.org/1999/xlink" width="100%" height="100%" version="1.1" viewBox="0 0 1224 136" xml:space="preserve" style="fill-rule:evenodd;clip-rule:evenodd;stroke-linejoin:round;stroke-miterlimit:2"><g id="title"><g><path d="M0,-115.677L-104.356,-114.549L-104.747,-98.878L-48.302,-99.352L-51.295,-0.156L-37.529,0L-36.456,-99.451L-0.244,-99.756L0,-115.677Z" style="fill:#007174;fill-rule:nonzero" transform="matrix(1,0,0,1,-158.935,-62.8297) matrix(1,0,0,1,932.923,183.507)"/></g><g><path d="M0,17.073L11.589,-26.723L11.507,-26.728L23.482,17.276L1.188,17.072L0,17.073ZM23.69,-35.808L8.383,-36.313L-14.974,49.443L-9.234,50.143L-2.866,30.81L25.456,30.842L31.541,53.386L42.816,52.879L23.69,-35.808Z" style="fill:#007174;fill-rule:nonzero" transform="matrix(1,0,0,1,-158.935,-62.8297) matrix(1,0,0,1,1054.19,134.865)"/></g><g><path d="M0,74.672L0.285,45.402L37.578,42.259L36.208,30.254L0.429,30.546L0.689,3.827L38.19,2.284L37.658,-7.329L-13.938,-10.303L-9.904,84.782L36.605,84.975L36.358,75.627L0,74.672Z" style="fill:#007174;fill-rule:nonzero" transform="matrix(1,0,0,1,-158.935,-62.8297) matrix(1,0,0,1,823.539,104.266)"/></g><g><path d="M0,66.667L0.254,40.535L33.55,37.729L32.327,27.011L0.383,27.271L0.615,3.417L34.096,2.04L33.62,-6.543L-12.443,-9.198L-8.842,75.693L32.681,75.865L32.46,67.519L0,66.667Z" style="fill:#007174;fill-rule:nonzero" transform="matrix(1,0,0,1,-158.935,-62.8297) matrix(1,0,0,1,997.419,106.99)"/></g><g><path d="M0,-92.128L-17.059,-52.142L-34.248,-98.968L-49.3,-98.336L-22.56,-43.639L-21.387,6.831L-11.47,6.84L-10.67,-41.656L11.236,-92.697L0,-92.128Z" style="fill:#007174;fill-rule:nonzero" transform="matrix(1,0,0,1,-158.935,-62.8297) matrix(1,0,0,1,531.161,173.268)"/></g><g><path d="M0,-104.708L-15.728,-104.499L-15.059,-52.22L-38.893,-45.077L-41.372,-96.221L-51.319,-97.02L-50.909,-2.169L-42.939,-3.056L-42.163,-33.72L-15.894,-38.335L-12.039,-0.026C-6.2,0 0.221,-1.924 0.221,-1.924L0,-104.708Z" style="fill:#007174;fill-rule:nonzero" transform="matrix(1,0,0,1,-158.935,-62.8297) matrix(1,0,0,1,972.202,192.701)"/></g><g><path d="M0,-107.092L-69.796,-106.624L-69.289,-95.342L-42.264,-92.881L-43.968,0L-31.986,-0.014L-26.516,-93.095L2.041,-94.3L0,-107.092Z" style="fill:#007174;fill-rule:nonzero" transform="matrix(1,0,0,1,-158.935,-62.8297) matrix(1,0,0,1,1223.53,188.157)"/></g><g><path d="M-0.42,-0.009C-5.004,-0.229 -6.582,5.06 -6.351,9.01C-6.119,12.973 -4.876,16.602 -0.42,16.916C3.413,17.187 5.535,13.328 5.515,9.378C5.498,6.116 3.513,0.18 -0.42,-0.009" style="fill:#007174;fill-rule:nonzero" transform="matrix(1,0,0,1,-158.935,-62.8297) matrix(0.998771,-0.0495693,-0.0495693,-0.998771,1209.95,184.408)"/></g><g><path d="M0,79.631C-3.577,83.807 -21.153,82.146 -21.153,82.146L-20.829,51.098C-20.829,51.098 -2.697,49.362 0.858,51.362C4.412,53.362 5.157,56.179 4.922,65.476C4.561,73.091 2.08,77.094 0,79.631M-20.122,4.909L-4.926,4.89C-4.926,4.89 3.36,4.116 4.577,15.72C5.698,26.417 2.788,33.486 -1.638,35.781C-7.552,38.847 -20.766,37.18 -20.766,37.18L-20.122,4.909ZM6.621,46.63C5.114,45.451 2.766,44.336 1.282,43.691C0.81,43.485 0.809,42.801 1.283,42.583C4.967,40.89 14.719,34.61 14.1,15.738C13.716,4.048 10.241,-2.401 6.565,-6.092C3.748,-8.919 0.023,-10.634 -3.935,-11.102C-19.191,-12.904 -33.028,-11.795 -33.028,-11.795L-33.82,90.946C-33.82,90.946 -12.286,92.535 -4.131,90.537C1.57,89.14 12.517,84.094 13.632,70.174C14.748,56.255 9.743,49.073 6.621,46.63" style="fill:#007174;fill-rule:nonzero" transform="matrix(1,0,0,1,-158.935,-62.8297) matrix(1,0,0,1,339.613,91.0662)"/></g><g><path d="M0,-105.171L-13.558,-25.539L-24.391,-105.722L-36.091,-105.523L-53.562,-29.722L-65.625,-97.672L-78.361,-99.319L-63.349,-3.224L-47.835,-6.069L-32.127,-73.098L-21.505,0.252L-11.545,0.551L7.252,-105.249L0,-105.171Z" style="fill:#007174;fill-rule:nonzero" transform="matrix(1,0,0,1,-158.935,-62.8297) matrix(1,0,0,1,752.73,195.06)"/></g><g><path d="M0,-3.245L-0.283,-38.536L14.545,-38.854C41.493,-37.385 37.965,-13.035 25.99,-6.43C16.439,-1.162 2.536,-3.198 0,-3.245M22.032,5.269C23.256,5.162 28.647,2.457 28.737,2.427C33.767,0.763 46.551,-4.653 46.779,-25.366C47.118,-56.212 6.268,-53.941 -10.73,-51.93C-10.793,-51.92 -13.135,40.464 -13.135,40.464L-2.811,39.804L-3.799,5.33L8.553,5.963L36.896,52.967L57.819,52.724L22.032,5.269Z" style="fill:#007174;fill-rule:nonzero" transform="matrix(1,0,0,1,-158.935,-62.8297) matrix(1,0,0,1,1111.49,143.148)"/></g><g><path d="M0,64.897L0.445,35.791L24.587,34.569L25.918,22.833L0.581,23.077L0.826,0.211L25.028,-0.06L25.213,-12.143L-10.061,-8.947L-10.677,25.891L-11.46,77.04L26.001,74.464L25.859,65.756L0,64.897Z" style="fill:#007174;fill-rule:nonzero" transform="matrix(1,0,0,1,-158.935,-62.8297) matrix(1,0,0,1,771.938,111.507)"/></g><g><path d="M0,-19.987C-5.434,-21.665 -6.673,-33.853 -4.762,-41.162C-3.966,-44.208 -1.243,-46.387 1.875,-46.625C7.905,-47.085 12.695,-46.881 15.59,-46.64C17.494,-46.481 18.997,-44.997 19.189,-43.09C19.809,-36.954 19.493,-25.619 19.493,-25.619L35.943,-25.845C35.943,-25.845 37.468,-44.694 29.447,-51.868C20.196,-60.142 3.428,-63.744 -9.183,-54.491C-22.504,-41.291 -24.166,-12.177 -3.806,-7.865C11.04,-4.72 17.011,-11.432 22.933,-6.949C29.138,-2.904 31.739,14.51 28.301,20.736C27.155,22.811 5.924,24.813 2.385,22.378C0.948,21.389 4.044,4.1 4.044,4.1L-14.125,1.906C-14.125,1.906 -16.474,24.833 -7.662,30.144C14.92,43.757 36.248,33.579 41.587,19.839C45.894,8.757 44.227,-2.834 37.602,-10.29C28.255,-20.808 13.276,-16.815 0,-19.987" style="fill:#007174;fill-rule:nonzero" transform="matrix(1,0,0,1,-158.935,-62.8297) matrix(1,0,0,1,567.142,156.974)"/></g><g><path d="M0,1.091C8.466,8.395 14.419,5.293 26.728,12.021C30.232,13.937 42.641,17.975 41.621,30.606C40.878,39.803 37.454,47.064 30.326,48.189C12.953,50.93 18.906,35.409 19.691,23.337L3.465,23.357L4.053,43.848C3.529,58.446 18.003,58.604 26.671,58.137C31.083,57.899 41.047,56.46 43.046,54.936C52.98,47.361 57.288,32.615 55.195,20.3C52.956,7.136 30.031,3.566 16.464,-1.523C11.692,-3.313 8.316,-7.317 7.513,-12.075C6.472,-18.25 1.734,-42.235 21.876,-40.855C35.586,-39.916 37.995,-34.931 32.11,-9.695C36.478,-9.582 45.144,-8.884 49.517,-8.878C50.175,-17.494 49.71,-41.161 44.689,-45.446C34.099,-57.513 1.373,-52.968 -2.681,-46.253C-9.45,-35.039 -10.668,-8.112 0,1.091" style="fill:#007174;fill-rule:nonzero" transform="matrix(1,0,0,1,-158.935,-62.8297) matrix(1,0,0,1,616.935,139.95)"/></g><g><path d="M0,67.997C-5.337,76.184 -13.41,75.825 -25.234,75.839C-25.234,75.839 -25.379,-0.691 -24.883,-3.14C-15.98,-3.314 -8.375,0.657 -4.178,4.428C15.493,22.104 6.552,57.946 0,67.997M4.314,-9.634C-3.82,-18.993 -18.28,-20.001 -37.491,-20.631C-37.491,-20.631 -38.186,75.646 -38.226,86.93C-25.574,87.527 -1.836,88.628 9.422,72.764C26.345,48.918 20.834,9.376 4.314,-9.634" style="fill:#007174;fill-rule:nonzero" transform="matrix(1,0,0,1,-158.935,-62.8297) matrix(1,0,0,1,472.221,108.048)"/></g><g><path d="M0,81.377C-16.007,83.424 -22.358,59.521 -22.173,41.358C-21.988,23.129 -16.723,4.888 -1.181,2.437C12.185,0.329 21.584,18.842 21.697,36.979C21.844,60.631 13.733,79.62 0,81.377M27.398,41.299C27.145,13.111 19.111,-11.044 -4.491,-9.471C-25.757,-8.053 -34.601,17.517 -35.051,46.942C-35.502,76.367 -21.059,92.421 -2.766,91.505C15.121,90.61 27.663,70.702 27.398,41.299" style="fill:#007174;fill-rule:nonzero" transform="matrix(1,0,0,1,-158.935,-62.8297) matrix(1,0,0,1,395.626,84.1167)"/></g><g><path d="M0,-122.001L-4.791,-41.488L-42.15,-119.301C-42.534,-119.302 -54.449,-119.291 -54.833,-119.292L-54.563,-0.215L-38.505,-0.125L-39.124,-83.821L-1.454,0C-0.623,-0.013 4.052,-0.027 4.883,-0.043L7.753,-121.94L0,-122.001Z" style="fill:#007174;fill-rule:nonzero" transform="matrix(1,0,0,1,-158.935,-62.8297) matrix(1,0,0,1,213.768,197.746)"/></g><g><path d="M0,67.042C-29.925,70.065 -31.177,-2.565 -3.347,-5.521C23.17,-8.349 24.441,62.636 0,67.042M-5.011,-17.769C-46.996,-16.972 -45.315,85.711 -0.544,85.657C45.972,85.601 42.372,-18.669 -5.011,-17.769" style="fill:#007174;fill-rule:nonzero" transform="matrix(1,0,0,1,-158.935,-62.8297) matrix(1,0,0,1,262.374,92.336)"/></g><g><path d="M0,74.23L-1.776,21.484L-16.528,65.153L-19.681,64.414L-32.213,23.323L-33.253,74.176L-39.542,73.687L-35.566,1.149L-28.674,-0.037L-16.399,46.975L-4.605,1.844L4.653,3.196L7.39,74.267L0,74.23Z" style="fill:#007174;fill-rule:nonzero" transform="matrix(1,0,0,1,-158.935,-62.8297) matrix(1,0,0,1,1370.77,99.9697)"/></g><g><path d="M0,54.12C-13.771,55.485 -19.309,39.589 -19.204,27.511C-19.099,15.387 -15.897,4.131 -2.528,2.498C8.97,1.093 15.935,12.541 16.465,24.59C16.903,34.542 11.815,52.949 0,54.12M23.461,27.459C23.158,8.713 16.172,-7.35 -4.137,-6.298C-22.437,-5.35 -29.972,11.658 -30.271,31.227C-30.571,50.796 -18.092,61.47 -2.351,60.857C13.042,60.257 23.777,47.014 23.461,27.459" style="fill:#007174;fill-rule:nonzero" transform="matrix(1,0,0,1,-158.935,-62.8297) matrix(1,0,0,1,1306.2,115.144)"/></g><g><path d="M0,59.169C-10.413,58.802 -13.27,47.628 -14.326,34.283C-15.381,20.939 -13.227,3.104 -2.912,1.481C10.1,-0.567 13.879,4.568 14.677,21.782C14.683,21.912 27.485,21.815 27.485,21.815C27.449,21.382 26.335,15.546 26.316,15.119C25.537,-2.812 7.631,-8.784 -7.13,-2.817C-22.643,3.454 -25.148,18.782 -23.697,37.128C-22.246,55.474 -11.274,67.953 4.167,65.805C21.394,63.408 27.473,52.425 26.398,39.215L14.199,39.183C13.11,50.033 11.38,59.57 0,59.169" style="fill:#007174;fill-rule:nonzero" transform="matrix(1,0,0,1,-158.935,-62.8297) matrix(1,0,0,1,1246.15,107.395)"/></g><g><path d="M0,-115.677L-104.356,-114.549L-104.747,-98.878L-48.302,-99.352L-51.295,-0.156L-37.529,0L-36.456,-99.451L-0.244,-99.756L0,-115.677Z" style="fill:#fc0;fill-rule:nonzero" transform="matrix(1,0,0,1,-158.935,-62.8297) matrix(1,0,0,1,936.923,178.507)"/></g><g><path d="M0,17.073L11.589,-26.723L11.507,-26.728L23.482,17.276L1.188,17.072L0,17.073ZM23.69,-35.808L8.383,-36.313L-14.974,49.443L-9.234,50.143L-2.866,30.81L25.456,30.842L31.541,53.386L42.816,52.879L23.69,-35.808Z" style="fill:#fc0;fill-rule:nonzero" transform="matrix(1,0,0,1,-158.935,-62.8297) matrix(1,0,0,1,1058.19,129.865)"/></g><g><path d="M0,74.672L0.285,45.402L37.578,42.259L36.208,30.254L0.429,30.546L0.689,3.827L38.19,2.284L37.658,-7.329L-13.938,-10.303L-9.904,84.782L36.605,84.975L36.358,75.627L0,74.672Z" style="fill:#fc0;fill-rule:nonzero" transform="matrix(1,0,0,1,-158.935,-62.8297) matrix(1,0,0,1,827.539,99.2656)"/></g><g><path d="M0,66.667L0.254,40.535L33.55,37.729L32.327,27.011L0.383,27.271L0.615,3.417L34.096,2.04L33.62,-6.543L-12.443,-9.198L-8.842,75.693L32.681,75.865L32.46,67.519L0,66.667Z" style="fill:#fc0;fill-rule:nonzero" transform="matrix(1,0,0,1,-158.935,-62.8297) matrix(1,0,0,1,1001.42,101.99)"/></g><g><path d="M0,-92.128L-17.059,-52.142L-34.248,-98.968L-49.3,-98.336L-22.56,-43.639L-21.387,6.831L-11.47,6.84L-10.67,-41.656L11.236,-92.697L0,-92.128Z" style="fill:#fc0;fill-rule:nonzero" transform="matrix(1,0,0,1,-158.935,-62.8297) matrix(1,0,0,1,535.161,168.268)"/></g><g><path d="M0,-104.708L-15.728,-104.499L-15.059,-52.22L-38.893,-45.077L-41.372,-96.221L-51.319,-97.02L-50.909,-2.169L-42.939,-3.056L-42.163,-33.72L-15.894,-38.335L-12.039,-0.026C-6.2,0 0.221,-1.924 0.221,-1.924L0,-104.708Z" style="fill:#fc0;fill-rule:nonzero" transform="matrix(1,0,0,1,-158.935,-62.8297) matrix(1,0,0,1,976.202,187.701)"/></g><g><path d="M0,-107.092L-69.796,-106.624L-69.289,-95.342L-42.264,-92.881L-43.968,0L-31.986,-0.014L-26.516,-93.095L2.041,-94.3L0,-107.092Z" style="fill:#fc0;fill-rule:nonzero" transform="matrix(1,0,0,1,-158.935,-62.8297) matrix(1,0,0,1,1227.53,183.157)"/></g><g><path d="M-0.42,-0.009C-5.004,-0.229 -6.582,5.06 -6.351,9.01C-6.119,12.973 -4.876,16.602 -0.42,16.916C3.413,17.187 5.535,13.328 5.515,9.378C5.498,6.116 3.513,0.18 -0.42,-0.009" style="fill:#fc0;fill-rule:nonzero" transform="matrix(1,0,0,1,-158.935,-62.8297) matrix(0.998771,-0.0495693,-0.0495693,-0.998771,1213.95,179.408)"/></g><g><path d="M0,79.631C-3.577,83.807 -21.153,82.146 -21.153,82.146L-20.829,51.098C-20.829,51.098 -2.697,49.362 0.858,51.362C4.412,53.362 5.157,56.179 4.922,65.476C4.561,73.091 2.08,77.094 0,79.631M-20.122,4.909L-4.926,4.89C-4.926,4.89 3.36,4.116 4.577,15.72C5.698,26.417 2.788,33.486 -1.638,35.781C-7.552,38.847 -20.766,37.18 -20.766,37.18L-20.122,4.909ZM6.621,46.63C5.114,45.451 2.766,44.336 1.282,43.691C0.81,43.485 0.809,42.801 1.283,42.583C4.967,40.89 14.719,34.61 14.1,15.738C13.716,4.048 10.241,-2.401 6.565,-6.092C3.748,-8.919 0.023,-10.634 -3.935,-11.102C-19.191,-12.904 -33.028,-11.795 -33.028,-11.795L-33.82,90.946C-33.82,90.946 -12.286,92.535 -4.131,90.537C1.57,89.14 12.517,84.094 13.632,70.174C14.748,56.255 9.743,49.073 6.621,46.63" style="fill:#fc0;fill-rule:nonzero" transform="matrix(1,0,0,1,-158.935,-62.8297) matrix(1,0,0,1,343.613,86.0662)"/></g><g><path d="M0,-105.171L-13.558,-25.539L-24.391,-105.722L-36.091,-105.523L-53.562,-29.722L-65.625,-97.672L-78.361,-99.319L-63.349,-3.224L-47.835,-6.069L-32.127,-73.098L-21.505,0.252L-11.545,0.551L7.252,-105.249L0,-105.171Z" style="fill:#fc0;fill-rule:nonzero" transform="matrix(1,0,0,1,-158.935,-62.8297) matrix(1,0,0,1,756.73,190.06)"/></g><g><path d="M0,-3.245L-0.283,-38.536L14.545,-38.854C41.493,-37.385 37.965,-13.035 25.99,-6.43C16.439,-1.162 2.536,-3.198 0,-3.245M22.032,5.269C23.256,5.162 28.647,2.457 28.737,2.427C33.767,0.763 46.551,-4.653 46.779,-25.366C47.118,-56.212 6.268,-53.941 -10.73,-51.93C-10.793,-51.92 -13.135,40.464 -13.135,40.464L-2.811,39.804L-3.799,5.33L8.553,5.963L36.896,52.967L57.819,52.724L22.032,5.269Z" style="fill:#fc0;fill-rule:nonzero" transform="matrix(1,0,0,1,-158.935,-62.8297) matrix(1,0,0,1,1115.49,138.148)"/></g><g><path d="M0,64.897L0.445,35.791L24.587,34.569L25.918,22.833L0.581,23.077L0.826,0.211L25.028,-0.06L25.213,-12.143L-10.061,-8.947L-10.677,25.891L-11.46,77.04L26.001,74.464L25.859,65.756L0,64.897Z" style="fill:#fc0;fill-rule:nonzero" transform="matrix(1,0,0,1,-158.935,-62.8297) matrix(1,0,0,1,775.938,106.507)"/></g><g><path d="M0,-19.987C-5.434,-21.665 -6.673,-33.853 -4.762,-41.162C-3.966,-44.208 -1.243,-46.387 1.875,-46.625C7.905,-47.085 12.695,-46.881 15.59,-46.64C17.494,-46.481 18.997,-44.997 19.189,-43.09C19.809,-36.954 19.493,-25.619 19.493,-25.619L35.943,-25.845C35.943,-25.845 37.468,-44.694 29.447,-51.868C20.196,-60.142 3.428,-63.744 -9.183,-54.491C-22.504,-41.291 -24.166,-12.177 -3.806,-7.865C11.04,-4.72 17.011,-11.432 22.933,-6.949C29.138,-2.904 31.739,14.51 28.301,20.736C27.155,22.811 5.924,24.813 2.385,22.378C0.948,21.389 4.044,4.1 4.044,4.1L-14.125,1.906C-14.125,1.906 -16.474,24.833 -7.662,30.144C14.92,43.757 36.248,33.579 41.587,19.839C45.894,8.757 44.227,-2.834 37.602,-10.29C28.255,-20.808 13.276,-16.815 0,-19.987" style="fill:#fc0;fill-rule:nonzero" transform="matrix(1,0,0,1,-158.935,-62.8297) matrix(1,0,0,1,571.142,151.974)"/></g><g><path d="M0,1.091C8.466,8.395 14.419,5.293 26.728,12.021C30.232,13.937 42.641,17.975 41.621,30.606C40.878,39.803 37.454,47.064 30.326,48.189C12.953,50.93 18.906,35.409 19.691,23.337L3.465,23.357L4.053,43.848C3.529,58.446 18.003,58.604 26.671,58.137C31.083,57.899 41.047,56.46 43.046,54.936C52.98,47.361 57.288,32.615 55.195,20.3C52.956,7.136 30.031,3.566 16.464,-1.523C11.692,-3.313 8.316,-7.317 7.513,-12.075C6.472,-18.25 1.734,-42.235 21.876,-40.855C35.586,-39.916 37.995,-34.931 32.11,-9.695C36.478,-9.582 45.144,-8.884 49.517,-8.878C50.175,-17.494 49.71,-41.161 44.689,-45.446C34.099,-57.513 1.373,-52.968 -2.681,-46.253C-9.45,-35.039 -10.668,-8.112 0,1.091" style="fill:#fc0;fill-rule:nonzero" transform="matrix(1,0,0,1,-158.935,-62.8297) matrix(1,0,0,1,620.935,134.95)"/></g><g><path d="M0,67.997C-5.337,76.184 -13.41,75.825 -25.234,75.839C-25.234,75.839 -25.379,-0.691 -24.883,-3.14C-15.98,-3.314 -8.375,0.657 -4.178,4.428C15.493,22.104 6.552,57.946 0,67.997M4.314,-9.634C-3.82,-18.993 -18.28,-20.001 -37.491,-20.631C-37.491,-20.631 -38.186,75.646 -38.226,86.93C-25.574,87.527 -1.836,88.628 9.422,72.764C26.345,48.918 20.834,9.376 4.314,-9.634" style="fill:#fc0;fill-rule:nonzero" transform="matrix(1,0,0,1,-158.935,-62.8297) matrix(1,0,0,1,476.221,103.048)"/></g><g><path d="M0,81.377C-16.007,83.424 -22.358,59.521 -22.173,41.358C-21.988,23.129 -16.723,4.888 -1.181,2.437C12.185,0.329 21.584,18.842 21.697,36.979C21.844,60.631 13.733,79.62 0,81.377M27.398,41.299C27.145,13.111 19.111,-11.044 -4.491,-9.471C-25.757,-8.053 -34.601,17.517 -35.051,46.942C-35.502,76.367 -21.059,92.421 -2.766,91.505C15.121,90.61 27.663,70.702 27.398,41.299" style="fill:#fc0;fill-rule:nonzero" transform="matrix(1,0,0,1,-158.935,-62.8297) matrix(1,0,0,1,399.626,79.1167)"/></g><g><path d="M0,-122.001L-4.791,-41.488L-42.15,-119.301C-42.534,-119.302 -54.449,-119.291 -54.833,-119.292L-54.563,-0.215L-38.505,-0.125L-39.124,-83.821L-1.454,0C-0.623,-0.013 4.052,-0.027 4.883,-0.043L7.753,-121.94L0,-122.001Z" style="fill:#fc0;fill-rule:nonzero" transform="matrix(1,0,0,1,-158.935,-62.8297) matrix(1,0,0,1,217.768,192.746)"/></g><g><path d="M0,67.042C-29.925,70.065 -31.177,-2.565 -3.347,-5.521C23.17,-8.349 24.441,62.636 0,67.042M-5.011,-17.769C-46.996,-16.972 -45.315,85.711 -0.544,85.657C45.972,85.601 42.372,-18.669 -5.011,-17.769" style="fill:#fc0;fill-rule:nonzero" transform="matrix(1,0,0,1,-158.935,-62.8297) matrix(1,0,0,1,266.374,87.336)"/></g><g><path d="M0,74.23L-1.776,21.484L-16.528,65.153L-19.681,64.414L-32.213,23.323L-33.253,74.176L-39.542,73.687L-35.566,1.149L-28.674,-0.037L-16.399,46.975L-4.605,1.844L4.653,3.196L7.39,74.267L0,74.23Z" style="fill:#fc0;fill-rule:nonzero" transform="matrix(1,0,0,1,-158.935,-62.8297) matrix(1,0,0,1,1374.77,94.9697)"/></g><g><path d="M0,54.12C-13.771,55.485 -19.309,39.589 -19.204,27.511C-19.099,15.387 -15.897,4.131 -2.528,2.498C8.97,1.093 15.935,12.541 16.465,24.59C16.903,34.542 11.815,52.949 0,54.12M23.461,27.459C23.158,8.713 16.172,-7.35 -4.137,-6.298C-22.437,-5.35 -29.972,11.658 -30.271,31.227C-30.571,50.796 -18.092,61.47 -2.351,60.857C13.042,60.257 23.777,47.014 23.461,27.459" style="fill:#fc0;fill-rule:nonzero" transform="matrix(1,0,0,1,-158.935,-62.8297) matrix(1,0,0,1,1310.2,110.144)"/></g><g><path d="M0,59.169C-10.413,58.802 -13.27,47.628 -14.326,34.283C-15.381,20.939 -13.227,3.104 -2.912,1.481C10.1,-0.567 13.879,4.568 14.677,21.782C14.683,21.912 27.485,21.815 27.485,21.815C27.449,21.382 26.335,15.546 26.316,15.119C25.537,-2.812 7.631,-8.784 -7.13,-2.817C-22.643,3.454 -25.148,18.782 -23.697,37.128C-22.246,55.474 -11.274,67.953 4.167,65.805C21.394,63.408 27.473,52.425 26.398,39.215L14.199,39.183C13.11,50.033 11.38,59.57 0,59.169" style="fill:#fc0;fill-rule:nonzero" transform="matrix(1,0,0,1,-158.935,-62.8297) matrix(1,0,0,1,1250.15,102.395)"/></g></g></svg>