<svg xmlns="http://www.w3.org/2000/svg" xmlns:xlink="http://www.w3.org/1999/xlink" width="100%" height="100%" version="1.1" viewBox="0 0 660 213" xml:space="preserve" style="fill-rule:evenodd;clip-rule:evenodd;stroke-linejoin:round;stroke-miterlimit:2"><g><path d="M0,-212.025C-119.788,-212.025 -180.049,-187.387 -180.049,-122.17C-180.049,-121.976 -180.042,-121.789 -180.041,-121.597L-484.187,0L-173.847,-86.807C-155.681,-42.903 -97.604,-32.315 0,-32.315C119.788,-32.315 175.024,-55.503 175.024,-122.17C175.024,-193.184 119.788,-212.025 0,-212.025" style="fill:#fc0;fill-rule:nonzero" transform="matrix(1,0,0,1,484.187,212.025)"/></g><g><path d="M0,-82.271L-61.634,-81.557L-61.723,-70.408L-28.385,-70.697L-29.256,-0.123L-21.123,0L-21.388,-70.758L0,-70.943L0,-82.271Z" style="fill:#007174;fill-rule:nonzero" transform="matrix(1,0,0,1,476.53,127.44)"/></g><g><path d="M0,54.61C-12.026,55.971 -17.082,39.925 -17.152,27.738C-17.223,15.505 -14.573,4.151 -2.902,2.519C7.135,1.116 13.38,12.676 14.005,24.834C14.521,34.876 10.317,53.442 0,54.61M20.162,27.738C19.647,8.822 13.321,-7.394 -4.427,-6.357C-20.419,-5.423 -26.782,11.729 -26.782,31.474C-26.782,51.219 -15.725,62.004 -1.966,61.404C11.488,60.818 20.701,47.469 20.162,27.738" style="fill:#007174;fill-rule:nonzero" transform="matrix(1,0,0,1,613.054,68.4202)"/></g><g><path d="M0,67.655L-0.096,39.645L15.918,37.935L15,29.393L-0.146,29.076L-0.234,10.066L21.905,9L21.503,2.16L-9.001,0L-5.759,67.655L0,67.655Z" style="fill:#007174;fill-rule:nonzero" transform="matrix(1,0,0,1,477.141,62.0517)"/></g><g><path d="M0,-4.281L-0.445,-30.407L7.56,-30.63C22.124,-29.518 20.42,-11.495 14.008,-6.616C8.894,-2.725 1.37,-4.244 0,-4.281M11.197,0.772C11.857,0.694 15.516,-0.035 15.565,-0.056C18.267,-1.284 25.126,-5.282 25.078,-20.616C25.006,-43.451 -0.111,-40.973 -9.273,-39.5C-9.307,-39.492 -7.267,29.939 -7.267,29.939L-0.042,29.136L0.761,5.053L4.775,4.25L31.533,38.367L39.293,39.17L11.197,0.772Z" style="fill:#007174;fill-rule:nonzero" transform="matrix(1,0,0,1,414.471,103.869)"/></g><g><path d="M-20.065,29.684L28.772,29.684L29.596,19.861L-19.967,21.913L-20.065,29.684Z" style="fill:#007174;fill-rule:nonzero" transform="matrix(-0.00296905,-0.999996,-0.999996,0.00296905,603.298,87.7913)"/></g><g><path d="M0,46.742L-22.045,45.184L-22.806,-9.239L-29.393,-9.738L-29.31,18.493L-28.997,56.217L1.546,56.48L0,46.742Z" style="fill:#007174;fill-rule:nonzero" transform="matrix(1,0,0,1,582.967,71.9131)"/></g><g><path d="M0,56.113C-13.085,57.511 -18.586,41.024 -18.663,28.501C-18.74,15.931 -14.656,3.358 -1.957,1.681C8.964,0.239 16.894,13.011 17.214,25.517C17.631,41.826 11.226,54.913 0,56.113M21.938,28.501C21.377,9.064 14.494,-7.598 -4.817,-6.533C-22.218,-5.573 -29.14,12.051 -29.14,32.34C-29.14,52.629 -17.11,63.711 -2.139,63.095C12.5,62.492 22.524,48.776 21.938,28.501" style="fill:#007174;fill-rule:nonzero" transform="matrix(1,0,0,1,526.28,73.9481)"/></g><g><path d="M0,-55.942C8.185,-56.309 18.274,-56.769 18.854,-42.251C19.359,-29.608 5.532,-29.947 1.885,-30.506L0,-55.942ZM25.666,-47.096C24.62,-58.348 16.285,-62.111 12.328,-63.238C6.669,-64.849 -7.979,-63.106 -7.979,-63.106L-6.103,8.907L0.971,8.907L2.61,-21.531C16.39,-21.531 27.022,-32.513 25.666,-47.096" style="fill:#007174;fill-rule:nonzero" transform="matrix(1,0,0,1,339.144,119.326)"/></g><g><path d="M0,43.402C-9.956,44.484 -14.142,31.731 -14.2,22.044C-14.258,12.322 -12.065,3.299 -2.402,2.002C5.907,0.886 11.077,10.074 11.594,19.737C12.022,27.718 8.542,42.474 0,43.402M16.692,22.044C16.265,7.011 11.028,-5.877 -3.665,-5.053C-16.905,-4.311 -22.172,9.321 -22.172,25.014C-22.172,40.707 -13.018,49.279 -1.627,48.802C9.511,48.336 17.137,37.727 16.692,22.044" style="fill:#007174;fill-rule:nonzero" transform="matrix(1,0,0,1,386.178,79.4125)"/></g><g><path d="M0,-12.201C-6.081,-12.112 -5.61,0.1 0.876,0.1C7.615,0.1 6.863,-12.301 0,-12.201" style="fill:#007174;fill-rule:nonzero" transform="matrix(1,0,0,1,577.016,56.6449)"/></g></svg>