<?xml version="1.0" encoding="UTF-8" standalone="no"?>
<!DOCTYPE svg PUBLIC "-//W3C//DTD SVG 1.1//EN" "http://www.w3.org/Graphics/SVG/1.1/DTD/svg11.dtd">
<svg width="100%" height="100%" viewBox="0 0 444 130" version="1.1" xmlns="http://www.w3.org/2000/svg" xmlns:xlink="http://www.w3.org/1999/xlink" xml:space="preserve" xmlns:serif="http://www.serif.com/" style="fill-rule:evenodd;clip-rule:evenodd;stroke-linejoin:round;stroke-miterlimit:2;">
    <g transform="matrix(1,0,0,1,309.27,129.71)">
        <path d="M0,-129.71C-77.459,-129.71 -122.478,-117.081 -134.727,-84.939L-309.27,-120.188L-137.914,-58.447C-134.244,-10.58 -88.112,0 0,0C91.919,0 134.304,-16.737 134.304,-64.855C134.304,-116.111 91.919,-129.71 0,-129.71" style="fill:rgb(255,204,0);fill-rule:nonzero;"/>
    </g>
    <g transform="matrix(1,0,0,1,251.011,61.1169)">
        <path d="M0,10.273C-5.824,2.846 -15.679,4.703 -24.095,1.304C-31.926,-1.858 -33.967,-11.73 -30.259,-17.355C-25.688,-24.289 -16.524,-22.748 -14.846,-21.77C-11.154,-19.617 -13.544,-13.76 -13.471,-5.652L-3.021,-6.312C-2.657,-13.853 -3.473,-21.774 -6.429,-25.483C-10.443,-30.519 -17.594,-31.555 -23.162,-30.208C-31.705,-28.141 -39.803,-19.49 -36.312,-4.733C-33.857,3.341 -32.723,5.623 -27.415,8.654C-22.969,11.193 -12.945,11.816 -9.218,14.285C-4.096,18.157 -4.964,27.909 -7.407,33.088C-8.521,35.451 -22.947,34.993 -24.237,33.586C-26.387,31.242 -25.192,26.701 -24.423,19.885L-34.32,19.942C-34.919,26.852 -33.627,32.08 -30.574,35.649C-27.367,39.398 -22.216,41.317 -15.275,41.432C-9.292,41.828 -4.543,38.777 -1.358,34.346C3.95,26.962 4.912,15.746 0,10.273" style="fill:rgb(0,113,116);fill-rule:nonzero;"/>
    </g>
    <g transform="matrix(1,0,0,1,249.664,99.4626)">
        <path d="M0,-65.17L56.766,-64.605L56.848,-55.773L26.143,-56.002L26.945,-0.097L19.455,0L19.699,-56.05L0,-56.197L0,-65.17Z" style="fill:rgb(0,113,116);fill-rule:nonzero;"/>
    </g>
    <g transform="matrix(1,0,0,1,339.589,75.042)">
        <path d="M0,-2.331L-0.476,-26.921L8.099,-27.131C23.701,-26.084 21.876,-9.12 15.007,-4.528C9.528,-0.866 1.467,-2.296 0,-2.331M12.821,3.62C13.528,3.547 16.623,1.666 16.674,1.645C19.57,0.49 26.917,-3.273 26.865,-17.705C26.789,-39.198 3.177,-37.65 -6.638,-36.263C-6.675,-36.256 -7.211,28.114 -7.211,28.114L-1.245,27.663L-2.122,3.641L5.03,4.092L21.842,36.867L33.944,36.716L12.821,3.62Z" style="fill:rgb(0,113,116);fill-rule:nonzero;"/>
    </g>
    <g transform="matrix(1,0,0,1,382.441,41.3686)">
        <path d="M0,46.883L0,25.851L16.285,24.989L17.062,16.51L-0.04,16.664L-0.111,0.141L16.225,-0.034L16.225,-8.765L-7.555,-6.486L-7.611,18.688L-7.611,55.648L17.652,53.819L17.466,47.527L0,46.883Z" style="fill:rgb(0,113,116);fill-rule:nonzero;"/>
    </g>
    <g transform="matrix(1,0,0,1,307.251,55.4416)">
        <path d="M0,48.711C-10.681,49.862 -14.768,33.321 -14.831,23.013C-14.894,12.667 -11.625,3.334 -1.26,1.954C7.654,0.767 11.033,11.024 11.588,21.308C12.046,29.801 9.163,47.723 0,48.711M19.224,23.283C18.766,7.284 13.148,-6.431 -2.615,-5.554C-16.818,-4.764 -22.469,9.743 -22.469,26.443C-22.469,43.143 -9.933,55.142 -0.593,54.246C11.282,53.107 19.702,39.972 19.224,23.283" style="fill:rgb(0,113,116);fill-rule:nonzero;"/>
    </g>
</svg>
